#!OML:ASF I:\Actors\actors\Patient Classification 2\Patient 1\Session 1\actor1.ASF
:FULLY-SPECIFIED
:DEGREES
388
root -0.236553 18.711 4.58559 20.1961 3.79617 -3.11572
lowerback 32.6929 0.503513 0.593456
upperback 5.32266 1.01779 1.32924
thorax -10.9533 0.456492 0.707931
lowerneck -13.2446 13.6137 15.5135
upperneck 14.0978 16.1033 -4.95394
head 8.18943 8.0707 -2.06585
rclavicle 3.42049e-015 -3.63947e-015
rhumerus 10.77 24.4282 -77.5152
rradius 56.9084
rwrist 17.385
rhand -27.9001 -41.5955
rfingers 7.12502
rthumb -1.28942 -71.5714
lclavicle 3.42049e-015 -3.63947e-015
lhumerus 13.2685 -36.0022 79.5188
lradius 57.1548
lwrist -7.68289
lhand -18.1074 -27.4608
lfingers 7.12502
lthumb 8.16669 2.36137
rfemur -24.508 -1.66984 16.4477
rtibia 13.7064
rfoot -19.6305 -14.797
rtoes -4.19015
lfemur -38.6637 0.36679 -11.7086
ltibia 32.8422
lfoot -15.2129 4.84167
ltoes -55.1253
389
root -0.237651 18.7142 4.58873 20.207 3.81136 -2.9873
lowerback 32.4174 0.628464 0.281037
upperback 5.24677 1.09121 1.50168
thorax -10.9389 0.50203 1.03289
lowerneck -14.2578 13.5796 15.4287
upperneck 16.7247 15.7214 -3.68189
head 9.11264 7.99475 -1.56662
rclavicle -9.93923e-016 -1.15047e-014
rhumerus 10.8242 24.449 -77.3633
rradius 56.6884
rwrist 17.6297
rhand -28.8196 -41.7357
rfingers 7.12502
rthumb -2.17746 -71.7043
lclavicle -9.93923e-016 -1.15047e-014
lhumerus 13.0606 -36.0061 79.9475
lradius 56.8799
lwrist -7.63403
lhand -17.8629 -27.3332
lfingers 7.12502
lthumb 8.40263 2.47963
rfemur -24.3651 -1.84468 16.3746
rtibia 13.4642
rfoot -19.5073 -14.8266
rtoes -4.73328
lfemur -38.57 0.288279 -11.8204
ltibia 32.6908
lfoot -15.228 4.84727
ltoes -55.1996
390
root -0.2388 18.7204 4.59032 20.1773 3.86698 -2.84991
lowerback 32.215 0.749772 -0.125368
upperback 5.1719 1.13776 1.72588
thorax -10.9564 0.539155 1.47383
lowerneck -15.5108 11.9343 13.8344
upperneck 18.5584 13.3065 -1.93747
head 9.49871 6.94861 -1.04854
rclavicle -1.60022e-014 -1.21756e-014
rhumerus 10.9308 24.6596 -77.0495
rradius 56.4089
rwrist 17.8751
rhand -27.4681 -41.9166
rfingers 7.12502
rthumb -0.872226 -71.8945
lclavicle -1.60022e-014 -1.21756e-014
lhumerus 12.8047 -35.9262 80.4241
lradius 56.6874
lwrist -7.50033
lhand -17.7141 -27.0298
lfingers 7.12502
lthumb 8.54623 2.77729
rfemur -24.1421 -1.978 16.2763
rtibia 13.1568
rfoot -19.417 -14.9275
rtoes -5.09795
lfemur -38.4262 0.172136 -11.9319
ltibia 32.4938
lfoot -15.2119 4.86969
ltoes -55.3257
391
root -0.238042 18.7263 4.59297 20.0525 3.95409 -2.72396
lowerback 32.1887 0.845275 -0.506983
upperback 5.09955 1.15758 1.91631
thorax -11.041 0.563448 1.87496
lowerneck -16.413 8.77518 11.2476
upperneck 19.2768 9.11111 -0.131854
head 9.3443 5.02997 -0.653929
rclavicle 8.54774e-015 6.06293e-015
rhumerus 11.0705 24.9244 -76.696
rradius 56.022
rwrist 18.2123
rhand -23.0833 -41.7927
rfingers 7.12502
rthumb 3.36268 -71.7459
lclavicle 8.54774e-015 6.06293e-015
lhumerus 12.4988 -35.8941 80.7833
lradius 56.7753
lwrist -7.07115
lhand -17.5419 -26.6551
lfingers 7.12502
lthumb 8.71238 3.14505
rfemur -23.7506 -2.09936 16.1686
rtibia 12.7289
rfoot -19.3364 -15.019
rtoes -5.04699
lfemur -38.162 0.0274087 -12.0354
ltibia 32.2678
lfoot -15.2228 4.89604
ltoes -55.4397
392
root -0.237565 18.7319 4.59808 19.8468 4.0546 -2.62756
lowerback 32.3456 0.893201 -0.868554
upperback 5.00133 1.11416 2.02934
thorax -11.2238 0.558696 2.2061
lowerneck -16.7776 4.88591 8.69681
upperneck 19.6975 4.14326 1.04431
head 9.16366 2.68451 -0.535322
rclavicle 1.15295e-014 -9.93923e-015
rhumerus 11.2649 25.2319 -76.4765
rradius 55.426
rwrist 18.588
rhand -22.8763 -41.5344
rfingers 7.12502
rthumb 3.56258 -71.4843
lclavicle 1.15295e-014 -9.93923e-015
lhumerus 12.1006 -35.9148 80.8857
lradius 57.2553
lwrist -6.26636
lhand -17.1325 -26.3372
lfingers 7.12502
lthumb 9.10747 3.44617
rfemur -23.2069 -2.25131 16.097
rtibia 12.1834
rfoot -19.1787 -15.054
rtoes -4.94003
lfemur -37.7835 -0.135648 -12.0998
ltibia 32.0173
lfoot -15.2384 4.88315
ltoes -55.4266
393
root -0.237885 18.7402 4.60324 19.6518 4.17929 -2.56409
lowerback 32.5331 0.840787 -1.27697
upperback 4.88966 0.924662 2.12473
thorax -11.426 0.490695 2.60073
lowerneck -16.1929 0.350117 4.64004
upperneck 19.6533 -1.49787 3.45944
head 8.84862 0.0187 0.223972
rclavicle -7.60351e-015 -7.55382e-015
rhumerus 11.5973 25.8641 -76.3108
rradius 54.6827
rwrist 18.9093
rhand -22.6279 -41.1842
rfingers 7.12502
rthumb 3.80247 -71.13
lclavicle -7.60351e-015 -7.55382e-015
lhumerus 11.4982 -35.728 80.8364
lradius 58.1062
lwrist -5.3743
lhand -16.7558 -26.0543
lfingers 7.12502
lthumb 9.47096 3.71288
rfemur -22.6383 -2.34137 16.0486
rtibia 11.5724
rfoot -19.0119 -15.1807
rtoes -5.08787
lfemur -37.413 -0.333102 -12.1086
ltibia 31.7427
lfoot -15.2024 4.87759
ltoes -55.3576
394
root -0.239027 18.7499 4.6091 19.4829 4.31965 -2.46443
lowerback 32.6484 0.671113 -1.71704
upperback 4.83876 0.564858 2.14737
thorax -11.5149 0.345837 3.00187
lowerneck -14.6053 -4.37047 0.0345403
upperneck 19.2353 -7.39254 6.39662
head 8.67469 -2.80341 1.27616
rclavicle 1.14301e-015 8.10048e-015
rhumerus 12.0448 26.7573 -76.2608
rradius 53.9476
rwrist 19.2542
rhand -22.5908 -41.0737
rfingers 7.12502
rthumb 3.8383 -71.0189
lclavicle 1.14301e-015 8.10048e-015
lhumerus 10.7402 -35.3152 80.5965
lradius 59.3651
lwrist -4.72361
lhand -16.6371 -25.7055
lfingers 7.12502
lthumb 9.58552 4.05642
rfemur -22.0798 -2.3762 15.9496
rtibia 10.9583
rfoot -18.8851 -15.4192
rtoes -5.36275
lfemur -37.0616 -0.454816 -12.1902
ltibia 31.4406
lfoot -15.1136 4.79505
ltoes -55.3493
395
root -0.241679 18.7589 4.61815 19.3454 4.48945 -2.33242
lowerback 32.6969 0.373102 -2.15724
upperback 4.86475 0.0311645 2.0856
thorax -11.47 0.119173 3.3797
lowerneck -11.7738 -8.86183 -4.92807
upperneck 18.2014 -13.0633 9.41535
head 8.57282 -5.62708 2.4532
rclavicle -9.93923e-016 1.18277e-014
rhumerus 12.3924 27.5504 -76.7536
rradius 53.3702
rwrist 20.0342
rhand -22.4525 -40.8948
rfingers 7.12502
rthumb 3.97178 -70.8375
lclavicle -9.93923e-016 1.18277e-014
lhumerus 9.96104 -34.6935 80.0585
lradius 60.9956
lwrist -4.1886
lhand -16.63 -25.4211
lfingers 7.12502
lthumb 9.59235 4.34056
rfemur -21.5535 -2.36579 15.8054
rtibia 10.3973
rfoot -18.8849 -15.671
rtoes -5.26088
lfemur -36.7195 -0.540407 -12.3156
ltibia 31.1174
lfoot -15.0436 4.67426
ltoes -55.4017
396
root -0.246652 18.7683 4.63191 19.2105 4.60146 -2.18034
lowerback 32.8223 -0.0993727 -2.47199
upperback 4.88931 -0.711214 1.80024
thorax -11.4348 -0.209128 3.53018
lowerneck -8.82913 -12.8429 -8.2806
upperneck 17.3382 -18.2007 10.4976
head 8.59123 -8.29859 2.7515
rclavicle -7.55382e-015 2.98177e-015
rhumerus 12.3827 27.9094 -78.3126
rradius 53.003
rwrist 21.5687
rhand -22.1247 -40.189
rfingers 7.12502
rthumb 4.28831 -70.1255
lclavicle -7.55382e-015 2.98177e-015
lhumerus 9.03176 -33.9171 79.1011
lradius 62.9239
lwrist -3.5774
lhand -16.7839 -25.1764
lfingers 7.12502
lthumb 9.44382 4.59202
rfemur -21.0452 -2.50356 15.7097
rtibia 9.88798
rfoot -18.8018 -15.6948
rtoes -4.70288
lfemur -36.3401 -0.618136 -12.4599
ltibia 30.7997
lfoot -15.0091 4.62898
ltoes -55.5414
397
root -0.252323 18.7772 4.64804 19.046 4.48795 -2.03423
lowerback 32.8495 -0.543246 -2.84081
upperback 5.02252 -1.44516 1.43182
thorax -11.2363 -0.538593 3.61241
lowerneck -5.29495 -16.239 -12.3812
upperneck 16.5536 -22.7797 11.9391
head 8.85107 -10.7496 3.28631
rclavicle 7.15625e-015 3.97569e-015
rhumerus 13.4244 30.0629 -77.9475
rradius 52.4036
rwrist 20.8663
rhand -22.4447 -39.9548
rfingers 7.12502
rthumb 3.97931 -69.8974
lclavicle 7.15625e-015 3.97569e-015
lhumerus 8.01 -33.0053 78.005
lradius 65.0606
lwrist -2.91667
lhand -17.0914 -24.8843
lfingers 7.12502
lthumb 9.14718 4.89732
rfemur -20.5278 -2.42623 15.5392
rtibia 9.36617
rfoot -18.6745 -15.7554
rtoes -4.12083
lfemur -35.9079 -0.468889 -12.688
ltibia 30.5302
lfoot -14.9466 4.56745
ltoes -55.6687
398
root -0.251749 18.7851 4.6642 18.9358 4.25578 -2.01582
lowerback 32.7355 -0.999554 -2.90966
upperback 5.1752 -2.09966 0.968838
thorax -10.9786 -0.846191 3.39585
lowerneck -2.6057 -18.4805 -15.3109
upperneck 16.2694 -25.9102 12.4432
head 9.17369 -12.468 3.44681
rclavicle -3.97569e-015 -4.37326e-015
rhumerus 14.2081 31.3945 -78.2287
rradius 52.0219
rwrist 20.624
rhand -22.2959 -39.472
rfingers 7.12502
rthumb 4.12306 -69.4119
lclavicle -3.97569e-015 -4.37326e-015
lhumerus 7.00887 -32.2179 76.8245
lradius 66.9843
lwrist -2.3858
lhand -17.6132 -24.6985
lfingers 7.12502
lthumb 8.64364 5.10455
rfemur -20.0713 -2.20872 15.4317
rtibia 8.76299
rfoot -18.4323 -15.905
rtoes -4.0313
lfemur -35.5582 -0.185894 -12.8267
ltibia 30.3126
lfoot -14.9104 4.486
ltoes -55.6262
399
root -0.242608 18.7934 4.67815 18.8765 4.0262 -2.10035
lowerback 32.6319 -1.4562 -2.68692
upperback 5.22965 -2.65516 0.515658
thorax -10.864 -1.1133 2.99772
lowerneck -2.95573 -18.8803 -16.694
upperneck 18.1926 -26.3049 11.4841
head 10.0212 -12.7108 3.12421
rclavicle -2.22639e-014 2.38542e-015
rhumerus 14.4781 32.161 -78.9361
rradius 51.9154
rwrist 20.4021
rhand -21.8213 -38.7451
rfingers 7.12502
rthumb 4.58135 -68.6755
lclavicle -2.22639e-014 2.38542e-015
lhumerus 6.19686 -31.6665 75.7652
lradius 68.108
lwrist -2.17464
lhand -18.3314 -24.5266
lfingers 7.12502
lthumb 7.95049 5.30389
rfemur -19.6341 -1.97438 15.4004
rtibia 8.04166
rfoot -18.0768 -16.1066
rtoes -4.42282
lfemur -35.3234 0.0620605 -12.8443
ltibia 30.1987
lfoot -14.9531 4.43013
ltoes -55.46
400
root -0.254026 18.8065 4.70015 18.7036 3.76511 -2.22481
lowerback 32.6833 -1.68499 -2.65163
upperback 5.19534 -2.9775 0.185768
thorax -10.9207 -1.26187 2.75108
lowerneck -4.98446 -17.2738 -15.6967
upperneck 19.6682 -23.6669 9.70546
head 10.1312 -11.4429 2.75426
rclavicle -1.66979e-014 3.18055e-015
rhumerus 14.3182 32.723 -79.5631
rradius 51.9946
rwrist 20.1376
rhand -21.5976 -38.3888
rfingers 7.12502
rthumb 4.79738 -68.3144
lclavicle -1.66979e-014 3.18055e-015
lhumerus 5.76286 -31.4048 74.9445
lradius 68.0529
lwrist -2.0968
lhand -18.7494 -24.1628
lfingers 7.12502
lthumb 7.54704 5.68256
rfemur -18.9085 -1.64619 15.5079
rtibia 7.12874
rfoot -17.8004 -16.2914
rtoes -4.37713
lfemur -34.9732 0.649201 -12.8459
ltibia 30.2075
lfoot -14.9768 4.09553
ltoes -55.3254
401
root -0.245876 18.8119 4.70956 18.5459 3.48416 -2.41683
lowerback 32.8643 -1.86861 -1.94207
upperback 5.10867 -3.03717 -0.287707
thorax -11.1479 -1.30939 1.89876
lowerneck -8.47852 -13.9955 -12.1417
upperneck 21.3588 -18.5961 6.43223
head 9.93503 -8.99677 1.84011
rclavicle 7.95139e-015 -1.59028e-014
rhumerus 14.122 32.8128 -79.7389
rradius 52.2322
rwrist 19.565
rhand -21.4369 -38.5373
rfingers 7.12502
rthumb 4.95255 -68.4594
lclavicle 7.95139e-015 -1.59028e-014
lhumerus 6.13554 -31.635 74.3457
lradius 66.7555
lwrist -2.00327
lhand -18.5092 -23.6444
lfingers 7.12502
lthumb 7.77892 6.19255
rfemur -18.2196 -1.31224 15.587
rtibia 6.08824
rfoot -17.4218 -16.6331
rtoes -4.30046
lfemur -34.795 1.09181 -12.8005
ltibia 30.3634
lfoot -15.0016 3.99009
ltoes -55.2262
